<svg xmlns="http://www.w3.org/2000/svg" style="display: none;">
  <symbol id="icon-arrow" viewBox="0 0 32 32" stroke="none">
    <path d="M12 25.3a1.3 1.3 0 0 1-1-2.2l7.1-7.1-7-7a1.3 1.3 0 1 1 1.8-2l8 8a1.3 1.3 0 0 1 0 2l-8 8z" />
  </symbol>
  <symbol id="icon-check" viewBox="0 0 22 22" stroke="none">
    <path
      d="M11 20.85c-2.22 0-3.83 0-5.12-.17a5.2 5.2 0 0 1-3.19-1.37 5.2 5.2 0 0 1-1.37-3.19c-.17-1.3-.17-2.9-.17-5.12s0-3.83.17-5.12c.2-1.46.62-2.44 1.37-3.19a5.2 5.2 0 0 1 3.19-1.37c1.3-.17 2.9-.17 5.12-.17s3.83 0 5.12.17c1.46.2 2.44.62 3.2 1.37a5.2 5.2 0 0 1 1.36 3.19c.17 1.3.17 2.9.17 5.12s0 3.83-.17 5.12a5.2 5.2 0 0 1-1.37 3.2 5.2 5.2 0 0 1-3.19 1.36c-1.3.17-2.9.17-5.12.17m0-18.33c-4.12 0-6.2 0-7.34 1.14S2.52 6.88 2.52 11c0 4.13 0 6.2 1.14 7.34s3.22 1.14 7.34 1.14c4.13 0 6.2 0 7.34-1.14s1.14-3.21 1.14-7.34 0-6.2-1.14-7.34S15.13 2.52 11 2.52" />
    <path d="M9.62 13.98a.7.7 0 0 1-.48-.2L7.3 11.94a.69.69 0 1 1 .98-.97l1.34 1.35 4.1-4.1a.69.69 0 1 1 .98.97l-4.59 4.59a.7.7 0 0 1-.49.2" />
  </symbol>
  <symbol id="icon-clock" viewBox="0 0 30 30" stroke="none">
    <path
      d="M15 1.25a13.75 13.75 0 1 0 0 27.5 13.75 13.75 0 0 0 0-27.5m4.63 18.38a1.25 1.25 0 0 1-1.76 0l-3.75-3.75a1.3 1.3 0 0 1-.37-.88V7.5a1.25 1.25 0 0 1 2.5 0v6.98l3.38 3.39a1.25 1.25 0 0 1 0 1.76" />
  </symbol>
  <symbol id="icon-email" viewBox="0 0 30 30" stroke="none">
    <path d="M17.5 18.38a4.5 4.5 0 0 1-5 0L.2 10.18l-.2-.14v13.43a2.76 2.76 0 0 0 2.76 2.76h24.48A2.76 2.76 0 0 0 30 23.47V10.04l-.2.14z" />
    <path d="m1.17 8.72 12.3 8.2a2.8 2.8 0 0 0 3.06 0l12.3-8.2A2.6 2.6 0 0 0 30 6.52a2.76 2.76 0 0 0-2.76-2.75H2.76A2.76 2.76 0 0 0 0 6.53c0 .88.44 1.7 1.17 2.2" />
  </symbol>
  <symbol id="icon-external" viewBox="0 0 34 34" stroke="none">
    <path
      d="M30.34 13.85a.94.94 0 0 0-.94.94v9.73a4.63 4.63 0 0 1-4.62 4.63H9.48a4.63 4.63 0 0 1-4.62-4.63V9.22A4.63 4.63 0 0 1 9.48 4.6h9.74a.94.94 0 1 0 0-1.88H9.48a6.5 6.5 0 0 0-6.5 6.5v15.3a6.5 6.5 0 0 0 6.5 6.5h15.3a6.5 6.5 0 0 0 6.5-6.5v-9.74a.94.94 0 0 0-.94-.93" />
    <path d="M30.47 2.72h-6.5a.81.81 0 0 0 0 1.63h4.54L18.1 14.74a.81.81 0 0 0 1.15 1.15l10.4-10.4v4.59a.81.81 0 0 0 1.62 0V3.53a.8.8 0 0 0-.81-.81" />
  </symbol>
  <symbol id="icon-logo-1" viewBox="0 0 159 49" stroke="none">
    <path fill="var(--color-logo-reinberg)"
      d="m23.4 22.4-1.7-2 5.9-.4q.6-.4.9-1.3l.1-2V11a2 2 0 0 0-1-1.7Q27 9 25.9 9H12.6q-.6 0-.5.6l-.1 1-.6.7-5.2 5.5h-.3l-5.7-6-.2-.4V.2Q0 0 .2 0h31.5q1.5 0 3 .6a6 6 0 0 1 3.3 3q1 2 1 4.3v13.2q-.1 1.5-.6 2.7a6 6 0 0 1-5.6 4.2l-3 .2q-.9.1-1.3-.4zm2 18.2 5.4 5.8h-6.4q-.6 0-1-.3l-.6-.6-10.6-10.8-.2 11.7H.2l-.2-.2v-6.7q0-.2.2-.5l8.1-8.4v-.3l-2-2.1a.2.2 0 0 0-.4 0l-5.7 6L0 34v-7q0-.6.3-.8l2-2V24L0 21.7l-.1-.2v-7.2q0-.3.2 0l5.7 5.9h.4l5.8-6q0-.2 0 0l30.9 32q0 0 0 .1h-6.8q-.3 0-.5-.2L12.3 22H12L9.9 24v.3z" />
    <path fill="var(--color-logo-reinmart)" d="M103.5 35.3H98V2h32.9v11.3c-.1 5.7-6.2 8.4-9.1 9l5.8 7.5 14-27.8h16.9v33.3h-5.7v-28h-7.5l-16.6 33.3-18-23.6h8.3c3.5 0 5.6-2.4 6.2-3.7v-6h-21.7z" />
    <path fill="var(--color-logo-x)" d="M60.8 32.8a.6.6 0 0 1-.4-1l14.3-14.4a.6.6 0 1 1 .9.9L61.3 32.6z" />
    <path fill="var(--color-logo-x)" d="m75.2 32.8-.5-.2-14.3-14.3a.6.6 0 1 1 .9-.9l14.3 14.3a.6.6 0 0 1-.4 1" />
    <path fill="var(--color-logo-reinmart)"
      d="M129.6 46.3h.1l2.6-4.3h1.5v6.3h-1.5v-3.9l-2.6 4.1h-.1l-2.7-4v3.8h-1.4V42h1.5zm-16.3-3.1h-5.5v1.3h5v1.2h-5v1.5h5.5v1.2h-6.9V42h7zm2.4 5.1h-1.4V42h1.4zm43.3-3.1h-1.5v-2h-1.8v5.1h-1.5v-5.2h-1.5v2.1h-1.4V42h7.7zm-53.7-.7c0 1-1 1.4-1.5 1.5l1.5 2.3h-1.6l-1.4-2.3h-2.9v2.3H98V42h7.3zm37 3.8h-1.5l-.6-1.3h-3.6l-.6 1.3h-1.5l2.8-6.3h2.2zm8-3.8c0 1-1 1.4-1.5 1.5l1.5 2.3h-1.6l-1.4-2.3h-2.9v2.3H143V42h7.3zm-27.5 2V42h1.5v6.3h-1.5l-4.4-4.5v4.5H117V42h1.4zm14.4-.7h2.5l-1.2-2.7h-.2zm-37.8-1h3.8q.6.1.7-.7v-1h-4.5zm45 0h3.8q.6.1.8-.7v-1h-4.6z" />
  </symbol>
  <symbol id="icon-logo-2" viewBox="0 0 157 61" stroke="none">
    <path fill="var(--color-logo-brand)"
      d="M23.37 22.43q-.9-.9-1.72-1.84-.2-.22.09-.21 2.31.05 4.5-.1a3 3 0 0 0 1.34-.31q.69-.4.88-1.23.18-.78.17-1.98l-.02-1.36q.04-3.53-.05-4.44-.11-1.12-1-1.65-.5-.3-1.61-.3Q19.1 8.88 12.56 9q-.58 0-.49.6.1.6-.07 1-.07.15-.6.7l-5.25 5.48a.2.2 0 0 1-.26 0l-5.7-5.96a.7.7 0 0 1-.19-.47V.19Q.02.02.18 0H28.7l2.98.01q1.54.1 2.94.55a5.8 5.8 0 0 1 3.42 3.05q.96 2 .99 4.33.06 5.45.03 10.9 0 .67-.06 1.33l-.07.94a10 10 0 0 1-.56 2.72 6.2 6.2 0 0 1-5.57 4.22q-.6.05-3 .17-.82.03-1.24-.4-1.74-1.77-3.43-3.59zm2.07 18.14q2.7 2.84 5.4 5.6.19.2-.06.19h-6.4q-.56 0-.92-.23l-.65-.66Q17.62 40 12.4 34.6q-.15-.15-.16.07-.11 5.77-.01 11.44c0 .14-.1.25-.24.25H.2a.2.2 0 0 1-.2-.2v-6.67q0-.26.18-.45l8.12-8.43a.23.23 0 0 0 0-.33l-2.05-2.12a.24.24 0 0 0-.35 0l-5.75 6Q0 34.3 0 34.08L.01 27q0-.4.29-.7l1.95-2.03q.1-.14 0-.29L.08 21.7a.4.4 0 0 1-.09-.23V14.3q0-.3.2-.09l5.67 5.93c.11.11.29.11.4 0l5.78-6.01q.07-.06.13 0l30.8 32q.19.2-.07.2l-6.66.02a.8.8 0 0 1-.59-.25L12.33 21.86a.24.24 0 0 0-.35 0l-2.1 2.17a.2.2 0 0 0 0 .28zM0 55.2v-4.57h2.16q.66 0 1.08.43t.42 1.14q0 .86-.64 1.26-.29.16-.64.2l1.4 1.54h-1.3l-1.3-1.47h-.13v1.47zm1.05-2.42h1.04q.23 0 .38-.16a.6.6 0 0 0 .14-.42.6.6 0 0 0-.14-.43.5.5 0 0 0-.38-.16H1.05zm3.4 2.42v-4.57h3.13v.94h-2.1v.89h1.97v.91H5.49v.88h2.09v.95zm3.91 0v-4.57h1.05v4.57zm1.96 0v-4.57h1.27l1.44 2.74h.13v-2.74h1.05v4.57h-1.28l-1.43-2.74h-.13v2.74zm4.8 0v-4.57h2.22q.6 0 .98.35.36.36.36.92a1.2 1.2 0 0 1-.49.98v.03q.17.12.28.25.27.36.28.77 0 .57-.37.92t-.97.35zm1.05-2.74h1.01q.2 0 .33-.13.13-.14.13-.33a.44.44 0 0 0-.46-.46h-1.01zm0 1.83h1.08a.44.44 0 0 0 .45-.46.44.44 0 0 0-.45-.46h-1.08zm3.36.91v-4.57h3.14v.94h-2.1v.89h1.97v.91h-1.96v.88h2.09v.95zm3.92 0v-4.57h2.16q.66 0 1.08.43t.42 1.14q0 .86-.64 1.26-.3.16-.63.2l1.4 1.54h-1.3l-1.31-1.47h-.13v1.47zm1.05-2.42h1.04q.23 0 .38-.16a.6.6 0 0 0 .14-.42.6.6 0 0 0-.14-.43.5.5 0 0 0-.38-.16H24.5zm6.76 2.42-.07-.46h-.03q-.12.15-.3.26a1.7 1.7 0 0 1-.94.27 2.1 2.1 0 0 1-1.58-.67q-.64-.66-.64-1.69t.64-1.68a2.1 2.1 0 0 1 1.58-.67q1.04 0 1.68.82.27.36.4.82h-1.07a1 1 0 0 0-.22-.31q-.31-.32-.8-.32t-.83.38q-.34.37-.34.96 0 .6.34.97.33.37.84.37.57 0 .88-.37.15-.15.2-.38h-1.02v-.72h2.06v2.42zm1.53 0v-1.08h1.08v1.08zm1.93 0v-4.57h2.15q.67 0 1.09.43t.42 1.14q0 .86-.64 1.26-.3.16-.64.2l1.4 1.54h-1.3l-1.3-1.47h-.14v1.47zm1.04-2.42h1.05q.23 0 .37-.16a.6.6 0 0 0 .15-.42.6.6 0 0 0-.15-.43.5.5 0 0 0-.37-.16h-1.05zm3.37.53v-2.68h1.04v2.68q0 .41.26.67t.63.27q.36 0 .62-.27.26-.26.26-.67v-2.68h1.04v2.68q0 .9-.52 1.43-.53.53-1.4.53-.9 0-1.4-.53a2 2 0 0 1-.53-1.43M.94 58.66v.79h.01q.2 0 .34-.11a.4.4 0 0 0 .12-.29q0-.16-.12-.28a.5.5 0 0 0-.34-.11zM.7 59.89v-.24a.8.8 0 0 1-.52-.17.6.6 0 0 1-.19-.43q0-.26.19-.43.18-.15.52-.16v-.2h.23v.2q.34 0 .52.16.18.17.18.43 0 .27-.18.43a.8.8 0 0 1-.52.17v.24zm0-.44v-.8H.7a.5.5 0 0 0-.34.12.4.4 0 0 0-.13.28q0 .17.13.29.13.1.34.1m1.18.4V58.3h.23v1.2h.04l.62-1.2h.34v1.55h-.23v-1.2h-.05l-.61 1.2zm1.4 0v-.22h.08q.15 0 .17-.18l.1-1.15h.99v1.55H4.4v-1.33h-.55l-.08.96q-.03.38-.37.38zm1.9-.22h.42q.1 0 .18-.08a.3.3 0 0 0 .07-.2.3.3 0 0 0-.07-.2.2.2 0 0 0-.18-.08h-.42zm-.23.22V58.3h.23v.55h.43q.2 0 .34.15.13.13.13.35t-.13.35q-.14.15-.34.15zm1.58 0v-1.33h-.49v-.22h1.2v.22h-.48v1.33zm1.15-.78h.45q.1 0 .17-.07a.3.3 0 0 0 .07-.2.3.3 0 0 0-.07-.2.2.2 0 0 0-.17-.08H7.7zm-.23.78V58.3h.7q.18 0 .32.14.13.14.13.36a.5.5 0 0 1-.13.36q-.14.14-.32.14h-.47v.55zm1.47 0v-.22h.22q.08 0 .1-.07l.04-.08-.57-1.18h.25l.42.87h.04l.39-.87h.25l-.61 1.36q-.09.18-.31.19zm1.32 0V58.3h.23v.66h.22q0-.11.05-.22a1 1 0 0 1 .14-.23.66.66 0 0 1 .5-.23q.3 0 .5.22.2.23.2.57 0 .36-.2.58a.7.7 0 0 1-.5.22.7.7 0 0 1-.5-.24l-.14-.22a1 1 0 0 1-.05-.23h-.22v.67zm.8-.36a.43.43 0 0 0 .68 0 .6.6 0 0 0 .14-.42.6.6 0 0 0-.14-.41.4.4 0 0 0-.34-.16.4.4 0 0 0-.33.16.6.6 0 0 0-.14.41q0 .26.14.42m1.31.36V58.3h.24v1.33h.54V58.3h.23v1.33h.54V58.3h.23v1.33h.16v.52h-.23v-.3zm2.16 0V58.3h.23v1.2h.05l.62-1.2h.34v1.55h-.23v-1.2h-.05l-.62 1.2zm1.57 0V58.3h1.01v.22h-.78v.44h.74v.22h-.74v.45h.78v.22zm1.82 0V58.3h.4l.4 1.22h.04l.41-1.22h.4v1.55h-.23v-1.18h-.05l-.4 1.18h-.3l-.4-1.18h-.04v1.18zm1.81 0 .57-1.55h.35l.56 1.55h-.25l-.14-.37h-.7l-.13.37zm.47-.58h.55l-.26-.7h-.04zm1.4.58v-1.33h-.48v-.22h1.2v.22h-.48v1.33zm.93 0V58.3h1.02v.22h-.79v.44h.74v.22h-.74v.45h.79v.22zm1.53-.78h.46q.09 0 .16-.07a.3.3 0 0 0 .07-.2.3.3 0 0 0-.07-.2.2.2 0 0 0-.16-.08h-.46zm-.23.78V58.3h.7q.19 0 .32.14t.13.36a.5.5 0 0 1-.13.36q-.14.14-.32.14h-.47v.55zm1.41 0V58.3h.23v1.2h.05l.62-1.2h.34v1.55h-.23v-1.2h-.05l-.62 1.2zm1.4 0 .56-1.55h.36l.56 1.55h-.26l-.13-.37h-.7l-.13.37zm.46-.58h.56l-.26-.7h-.04zm1.03.59v-.23h.08q.15 0 .16-.18l.1-1.15h1v1.55h-.24v-1.33h-.55l-.08.96q-.03.38-.37.38zm2.92-.01V58.3h.23v1.55zM30 59.63h.38q.1 0 .18-.08a.3.3 0 0 0 .07-.2.3.3 0 0 0-.07-.2.2.2 0 0 0-.18-.08H30zm-.23.22V58.3h.23v.55h.39q.2 0 .34.15.13.13.13.35t-.13.35q-.14.15-.34.15zm1.79 0v-.26h.25v.26zm1.92-1.2v.8q.22 0 .34-.11a.4.4 0 0 0 .13-.29q0-.16-.13-.28a.5.5 0 0 0-.33-.11zm-.24 1.24v-.24a.8.8 0 0 1-.51-.17.6.6 0 0 1-.2-.43q0-.26.2-.43.19-.15.51-.16v-.2h.24v.2q.33 0 .51.16.2.17.19.43 0 .27-.19.43a.8.8 0 0 1-.51.17v.24zm0-.44v-.8a.5.5 0 0 0-.34.12.4.4 0 0 0-.13.28q0 .17.13.29.13.1.33.1zm1.18.4V58.3h.23v1.2h.05l.62-1.2h.34v1.55h-.23v-1.2h-.05l-.62 1.2zm1.41 0v-.22h.08q.14 0 .17-.18l.09-1.15h1v1.55h-.24v-1.33h-.54l-.08.96q-.04.38-.38.38zm1.9-.22h.42q.1 0 .18-.08a.3.3 0 0 0 .07-.2.3.3 0 0 0-.07-.2.2.2 0 0 0-.18-.08h-.42zm-.23.22V58.3h.23v.55h.43q.2 0 .33.15.14.13.14.35t-.14.35q-.14.15-.33.15zm1.57 0v-1.33h-.48v-.22h1.2v.22h-.49v1.33zm1.16-.78h.45q.1 0 .16-.07a.3.3 0 0 0 .07-.2.3.3 0 0 0-.07-.2.2.2 0 0 0-.16-.08h-.45zm-.23.78V58.3h.7q.18 0 .31.14t.13.36a.5.5 0 0 1-.13.36q-.12.14-.32.14h-.46v.55zm2.66 0V58.3h.24v1.55zm-1.02-.22h.37q.12 0 .19-.08a.3.3 0 0 0 .07-.2.3.3 0 0 0-.07-.2.2.2 0 0 0-.19-.08h-.37zm-.23.22V58.3h.23v.55h.38q.2 0 .34.15.14.13.14.35t-.14.35q-.13.15-.34.15z" />
    <path fill="var(--color-logo-brand)"
      d="M101.48 44.27H96V11h32.9v11.33c-.15 5.7-6.15 8.35-9.14 8.96l5.85 7.5L139.68 11h16.82v33.27h-5.67V16.3h-7.49l-16.63 33.27-18.1-23.58h8.41c3.5 0 5.6-2.44 6.21-3.66V16.3h-21.75z" />
    <path fill="var(--color-logo-x)" d="M58.85 36.75a.6.6 0 0 1-.43-1.02l14.31-14.3a.6.6 0 1 1 .84.84l-14.3 14.3a.6.6 0 0 1-.42.18" />
    <path fill="var(--color-logo-x)" d="M73.15 36.75a.6.6 0 0 1-.42-.17l-14.3-14.31a.6.6 0 1 1 .84-.84l14.3 14.3a.6.6 0 0 1-.42 1.02" />
  </symbol>
  <symbol id="icon-phone" viewBox="0 0 30 30" stroke="none">
    <path
      d="M28.16 21.19c-.08-.06-5.66-4.09-7.2-3.8-.72.13-1.14.63-1.98 1.63-.14.16-.46.55-.71.82q-.8-.26-1.55-.63a12.8 12.8 0 0 1-6.56-7.47c.28-.26.67-.58.83-.72 1-.83 1.5-1.25 1.62-1.98.27-1.52-3.75-7.14-3.8-7.2a2.2 2.2 0 0 0-1.6-.9C5.6.94.95 6.97.95 7.99c0 .06.08 6.06 7.49 13.6 7.52 7.39 13.52 7.47 13.58 7.47 1.02 0 7.05-4.65 7.05-6.28a2.1 2.1 0 0 0-.9-1.6" />
  </symbol>
  <symbol id="icon-pin" viewBox="0 0 27 34" stroke="none">
    <path
      d="M13.5 0A12.76 12.76 0 0 0 .84 12.84c0 10.06 11.47 20.45 11.96 20.9a1.05 1.05 0 0 0 1.4 0c.49-.45 11.96-10.84 11.96-20.9C26.16 5.76 20.48 0 13.5 0m0 19.83a7.07 7.07 0 0 1-7.03-7.08c0-3.9 3.15-7.08 7.03-7.08a7.07 7.07 0 0 1 7.03 7.08c0 3.9-3.15 7.08-7.03 7.08" />
  </symbol>
  <symbol id="icon-reinberg" viewBox="0 0 463 63" stroke="none">
    <path
      d="M195 36.5V.2l.1-.2h15l.2.2v61.1q0 .3-.3.3h-15.7l-.2-.1-1-1.9-19.4-34.4v36.1q0 .3-.3.3h-14.9l-.1-.2V.2q0-.2.2-.2h15.8q.1 0 .3.2l20.1 36.4q.2.4.2 0M412.6 4.4q2.4-2.5 5.9-3.5 3.4-.9 6.7-.9l32.6.2V12l-.1.2h-28q-5.2 0-5.2 5.2v26.2q0 2.6.3 3.5.6 1.3 2 2 .7.3 2.5.3h17.6q.4 0 .4-.3V37q0-.3-.4-.3H436l-.1-.2V26.3l.1-.1h27l.1.1-.2 33.4-9.7 1.1-3.7.3s-8 .5-11.6.5h-14.5a19 19 0 0 1-8.9-2.5q-3.5-2.2-4.8-6.3a22 22 0 0 1-1-7l-.1-29q0-4.5 1.5-8.5.7-2.1 2.5-3.9M225 5V.3q0-.2.3-.3H259q3 0 6.1.9 6.4 1.8 8.3 8.6 1.2 4.5.6 9-.4 3-1.6 5.2-1.8 3.3-5.3 5.1-.4.3 0 .4 3.4 1 5.6 3.6 1.6 1.8 2.7 4.6 1 2.8 1.3 5.8a32 32 0 0 1-.2 5.5q-.3 3.5-2 6.5-.7 1.5-2.1 2.8-1.2 1.1-3 2-3 1.5-6.9 1.5l-3.5.1-34.1-.2zm15 7.5a75 75 0 0 0 0 9l.3 3.2h14.4l2-.5q1.3-.6 1.9-1.7.4-.9.6-2.4v-3q0-1.8-.7-2.8a4 4 0 0 0-3.8-2h-14.5q-.1 0-.2.2m0 24.7V49q0 .3.2.3h16.9q3 0 4.1-2.5.5-1 .5-2.6v-2.7q-.2-3-2.4-4-1-.5-3.1-.5zM123.3 12.3H116l-.2-.2V.2q0-.1.2-.2h30.2l.2.2v12l-.2.1h-7.1q-.3 0-.3.3v36.5q0 .2.2.2h7.2l.2.2v11.9l-.2.2H116l-.2-.2V49.6q0-.3.2-.3h7.2q.2 0 .2-.3V12.4zm-46.4 12 25-.1q.3 0 .3.4v11.8l-.2.1H77l-.2.3v12.3q0 .2.2.2h31.9q.2 0 .2.3v11.8q0 .2-.2.2H61.5a.2.2 0 0 1-.3-.2V.2l.2-.2H109l.1.2v12l-.1.1H77l-.2.2v11.7m285.5 18.9q-.1 0-.2.2v18q0 .2-.2.2h-14.4q-.2 0-.2-.2V.2l.1-.2h35.3q3.2 0 6.2.9 2.4.7 3.9 1.8 1.8 1.3 3 3.1 1.2 2 2 5 .6 3 .6 6.1v8.7a36 36 0 0 1-.5 6.2q-.4 2.2-1.3 4.2-2.4 5-7.3 6.1-.3.1-.2.4l10 18.8q.1.3-.1.3h-15.6q-.3 0-.3-.2l-9.3-18-.4-.2zm-.1-30.7v17.9q0 .3.3.4h16.5q3 0 4.1-2.6.4-1 .5-3l-.3-9.6q-.8-3.3-5-3.3zm-58.4 11.4q0 .3.3.4l24.4.1v11.8q0 .3-.2.4h-24.2q-.3 0-.3.3v12q0 .4.4.4h31v12.1l-.1.2H289l-.3-.3V.3q0-.3.3-.3h46q.3 0 .3.3V12l-.2.2h-31q-.3 0-.3.3zM31 29.8l-2.2-2.4q-.3-.3 0-.3l6-.1q1.3-.1 1.9-.5 1-.5 1.1-1.6.3-1 .2-2.6v-7.8q-.2-1.5-1.4-2.1-.6-.4-2.1-.4H16.7q-.7 0-.7.8V14l-.8 1-7 7.2q-.2.2-.4 0l-7.6-8-.2-.5V.3Q0 0 .2 0h41.9q2.1.2 3.9.8a8 8 0 0 1 4.5 4q1.3 2.7 1.3 5.8V28a13 13 0 0 1-.8 3.6 8 8 0 0 1-7.4 5.6l-4 .2q-1 0-1.7-.5zM33.9 54l7.1 7.7h-8.5q-.8 0-1.2-.3l-.9-.9-14-14.3v15.2q0 .3-.4.3H.3l-.3-.3v-8.8q0-.4.2-.6L11 40.7v-.5l-2.7-2.8a.3.3 0 0 0-.5 0l-7.6 8q-.2.2-.2-.1v-9.4q0-.6.4-1L3 32.4v-.4l-2.9-3-.1-.4V19q0-.4.3-.1l7.5 7.9h.5l7.7-8h.2l41 42.5q0 .3-.2.3h-8.8l-.8-.3-31-32.2a.3.3 0 0 0-.5 0l-2.8 2.8v.4z" />
  </symbol>
  <symbol id="icon-reinmart" viewBox="0 0 400 43" stroke="none">
    <path
      d="M207.043 28.0928H207.93L225.166 0H234.523V41.1641H225.166V15.9004L207.93 42.5303H207.043L189.51 15.9004V41.1641H180.251V0H190.102L207.043 28.0928ZM100.468 7.6084H64.418V16.4854H97.0205V24.2891H64.418V33.5557H100.468V41.2617H55.0605V0H100.468V7.6084ZM116.326 41.1641H106.87V0H116.326V41.1641ZM400 20.7773H390.446V7.41309H378.134V41.1641H368.776V7.41309H358.532V20.7773H349.273V0.0976562H400V20.7773ZM47.7715 16.3877C47.7714 22.7083 41.3369 25.3292 38.1191 25.8496L47.7715 41.0664H37.3311L28.1709 25.8496H9.25879V41.0664H0V0H47.7715V16.3877ZM290.963 41.0664H280.621L276.484 32.3848H253.14L249.299 41.0664H239.055L257.868 0H272.052L290.963 41.0664ZM342.972 16.3877C342.972 22.7082 336.537 25.3291 333.319 25.8496L342.972 41.0664H332.531L323.371 25.8496H304.459V41.0664H295.2V0H342.972V16.3877ZM162.62 28.9707V0H172.371V40.9688H162.62L133.465 11.7051V40.9688H124.305V0H133.465L162.62 28.9707ZM256.883 24.6787H273.135L265.452 7.21875H264.565L256.883 24.6787ZM9.35742 18.3389H34.1787C35.7547 18.3389 38.9072 17.3431 38.9072 13.3633V7.31641H9.35742V18.3389ZM304.558 18.3389H329.379C330.955 18.3388 334.106 17.3429 334.106 13.3633V7.31641H304.558V18.3389Z" />
  </symbol>
  <symbol id="icon-reinmart-mini" viewBox="0 0 79 51" stroke="none">
    <path d="M7.1 43.2H0V0h42.7v14.7c-.2 7.4-8 10.8-11.9 11.6l7.6 9.7L56.7 0h21.8v43.2h-7.4V6.9h-9.7L39.8 50 16.4 19.4h10.9c4.5 0 7.2-3.1 8-4.7V6.9H7.1z" />
  </symbol>
  <symbol id="icon-security" viewBox="0 0 43 54" stroke="none">
    <path
      d="M42.208 10.995 21.806.12a1.01 1.01 0 0 0-.966.005L1.003 11.001c-.326.179-.527.52-.527.891V26.1A29.42 29.42 0 0 0 18.099 53.02l2.754 1.2c.257.113.55.113.808.002l3.103-1.34a29.36 29.36 0 0 0 17.982-27.065V11.892c0-.375-.207-.72-.538-.897m-1.493 14.822a27.33 27.33 0 0 1-16.746 25.195l-.007.003-2.702 1.167-2.348-1.025A27.38 27.38 0 0 1 2.506 26.1V12.494L21.336 2.17 40.714 12.5z" />
    <path d="M13.841 25.44a1.016 1.016 0 1 0-1.545 1.32l5.366 6.285c.358.42.985.477 1.413.129l12.496-10.17a1.016 1.016 0 0 0-1.283-1.577L18.562 30.97z" />
  </symbol>
  <symbol id="icon-send" viewBox="0 0 40 40" fill="none">
    <path stroke-linecap="round" stroke-linejoin="round" stroke-miterlimit="10" stroke-width="1.5"
      d="M27.66 20H12.29m15.37 0-6.15 6.15M27.66 20l-6.15-6.15m13.53-9.54.65.65a9.4 9.4 0 0 1 2.75 6.63v16.82c0 2.48-.99 4.87-2.75 6.63l-.65.65a9.4 9.4 0 0 1-6.63 2.75H11.59a9.4 9.4 0 0 1-6.63-2.75l-.65-.65a9.4 9.4 0 0 1-2.75-6.63V11.59c0-2.48.99-4.87 2.75-6.63l.65-.65a9.4 9.4 0 0 1 6.63-2.75h16.82c2.48 0 4.87.99 6.63 2.75" />
  </symbol>
  <symbol id="icon-star" viewBox="0 0 36 40" stroke="none">
    <path
      d="M18.97 18.23 18 16.26l-.97 1.97a1.5 1.5 0 0 1-1.13.82l-2.18.31 1.58 1.54a1.5 1.5 0 0 1 .43 1.33l-.37 2.16 1.95-1.02a1.5 1.5 0 0 1 1.4 0l1.94 1.02-.37-2.16a1.5 1.5 0 0 1 .42-1.33l1.57-1.54-2.17-.31a1.5 1.5 0 0 1-1.13-.82" />
    <path
      d="m33.14 8.78-12-7.37a6 6 0 0 0-6.28 0l-12 7.37A6 6 0 0 0 0 13.89v12.22a6 6 0 0 0 2.86 5.11l12 7.37a6 6 0 0 0 6.28 0l12-7.37A6 6 0 0 0 36 26.11V13.89a6 6 0 0 0-2.86-5.11m-6.59 10.6-3.19 3.11.75 4.39a1.5 1.5 0 0 1-2.17 1.58L18 26.39l-3.94 2.07a1.5 1.5 0 0 1-2.17-1.58l.75-4.39-3.19-3.1a1.5 1.5 0 0 1 .83-2.55l4.4-.64 1.97-4a1.56 1.56 0 0 1 2.69 0l1.97 3.99 4.4.64a1.5 1.5 0 0 1 .83 2.55z" />
  </symbol>
  <symbol id="icon-telegram" viewBox="0 0 35 35" stroke="none">
    <path
      d="m13.38 21.56-.57 7.94c.81 0 1.16-.35 1.58-.77l3.78-3.61 7.84 5.74c1.44.8 2.45.38 2.84-1.32l5.14-24.11c.46-2.13-.77-2.96-2.17-2.44L1.58 14.57c-2.06.8-2.03 1.95-.35 2.47l7.73 2.4L26.92 8.22c.85-.56 1.62-.25.98.3z" />
  </symbol>
  <symbol id="icon-viber" viewBox="0 0 36 36" stroke="none">
    <path
      d="M34.53 20.72c1.07-8.99-.5-14.66-3.36-17.23-4.6-4.38-20.15-5.03-25.65.2-2.47 2.55-3.35 6.3-3.44 10.95-.1 4.65-.21 13.36 7.9 15.73H10v3.6s-.06 1.46.87 1.76c1.07.34 1.55-.33 4.88-4.3a30 30 0 0 0 10.3-.78c1.12-.38 7.47-1.22 8.5-9.93M16.28 28.9s-3.51 4.38-4.6 5.52c-.36.37-.76.34-.75-.4l.03-5.99c-6.88-1.97-6.48-9.38-6.4-13.26.07-3.88.78-7.06 2.88-9.2 4.83-4.53 18.45-3.52 21.93-.26 4.24 3.77 2.73 14.4 2.74 14.76-.87 7.27-6.02 7.73-6.96 8.05-.4.13-4.16 1.1-8.87.78" />
    <path d="M18.23 6.4c-.58 0-.58.9 0 .91 4.45.04 8.12 3.14 8.16 8.84 0 .6.88.6.88-.01-.05-6.14-4.06-9.7-9.04-9.73" />
    <path
      d="M24.09 15.2c-.02.6.86.62.87.02.07-3.38-2.01-6.17-5.93-6.46-.58-.04-.64.86-.06.9 3.4.26 5.19 2.58 5.12 5.54M23.15 19.05c-.74-.42-1.49-.16-1.8.26l-.65.84c-.33.43-.94.37-.94.37-4.5-1.19-5.7-5.9-5.7-5.9s-.05-.63.36-.97l.8-.67c.41-.32.67-1.1.26-1.86-1.1-2-1.85-2.68-2.23-3.21-.4-.5-.99-.61-1.6-.27h-.02c-1.3.75-2.7 2.16-2.25 3.62.77 1.53 2.19 6.42 6.7 10.11 2.12 1.75 5.48 3.54 6.9 3.95l.02.02c1.4.47 2.77-1 3.5-2.33.33-.65.22-1.26-.25-1.66-.84-.81-2.1-1.72-3.1-2.3" />
    <path d="M19.64 12.09c1.43.08 2.13.83 2.2 2.37.03.6.9.56.88-.04-.1-2.01-1.15-3.13-3.03-3.24-.58-.03-.63.87-.05.9" />
  </symbol>
  <symbol id="icon-vkontakte" viewBox="0 0 34 34" stroke="none">
    <path
      d="M33.6067 24.6635c-.0409-.0881-.079-.1613-.1145-.2199-.5861-1.0557-1.7063-2.3515-3.3598-3.8879l-.035-.0351-.0175-.0173-.0176-.0177h-.0178c-.7504-.7154-1.2256-1.1964-1.4247-1.4426-.3641-.4691-.4457-.944-.2467-1.4251.1406-.3635.6688-1.1312 1.5832-2.3042.4811-.6216.862-1.1198 1.1433-1.4951 2.029-2.6974 2.9086-4.4211 2.6388-5.17172l-.1048-.17542c-.0704-.1056-.2522-.20221-.545-.29032-.2936-.08792-.6687-.10246-1.1262-.04386l-5.066.03499c-.0821-.02908-.1993-.02637-.352.00887-.1525.03525-.2287.05293-.2287.05293l-.0882.04405-.07.05293c-.0587.03499-.1232.09655-.1936.18453-.07.08767-.1286.19057-.1755.30782-.5515 1.419-1.1786 2.7383-1.8824 3.9579-.434.7272-.8325 1.3574-1.1964 1.8911-.3635.5334-.6684.9264-.9145 1.1784-.2464.2521-.4688.4542-.6686.6068-.1994.1527-.3517.2172-.4571.1936-.1057-.0236-.2052-.047-.2994-.0705-.164-.1056-.296-.2492-.3955-.4309-.1-.1818-.1672-.4106-.2024-.6862-.035-.2757-.0557-.5129-.0616-.7124-.0055-.1992-.003-.4809.0089-.8444.0122-.3637.0177-.6098.0177-.7388 0-.4458.0087-.9295.0261-1.4513.0177-.5219.0321-.9354.0441-1.24.012-.3049.0175-.62751.0175-.96762 0-.3401-.0207-.60682-.0616-.80041-.0404-.19334-.1025-.38101-.1842-.56295-.0823-.18176-.2027-.32236-.3606-.42217-.1583-.09969-.3551-.1788-.5893-.23758-.6216-.14066-1.4132-.21675-2.375-.22858-2.1811-.02342-3.5826.11743-4.2042.42235-.2463.12883-.4691.30486-.6684.52753-.2111.25809-.2406.39894-.0881.42211.7037.10542 1.2019.3576 1.4951.75629l.1057.21127c.0822.15243.1642.42226.2464.80926.082.3869.1349.8149.1582 1.2838.0585.8562.0585 1.5892 0 2.1989-.0587.61-.1142 1.0848-.1671 1.4249s-.132.6157-.2375.8267c-.1057.2111-.176.3401-.2112.3869-.0352.0469-.0645.0764-.0878.088-.1525.0584-.311.0881-.4751.0881-.1643 0-.3635-.0822-.598-.2464-.2345-.1643-.4778-.3899-.73-.6773-.2521-.2874-.5365-.689-.85329-1.205-.31651-.5159-.6449-1.1257-.985-1.8293l-.28139-.5103c-.1759-.3283-.41619-.8063-.72112-1.4335-.3051-.6276-.57478-1.23458-.80922-1.82095-.09371-.24626-.23449-.43375-.4221-.56277l-.08805-.05292c-.05853-.04683-.15249-.09655-.28138-.14954-.12908-.05292-.26377-.09087-.40462-.11423l-4.8199.035c-.49253 0-.82672.11158-1.00268.33443l-.07042.10542C.01774 8.63486 0 8.72864 0 8.85771c0 .12902.03518.28737.1056.47485q1.05543 2.48045 2.29551 4.78474c.82672 1.5363 1.54512 2.7738 2.15478 3.7114.60978.9383 1.23133 1.8239 1.86465 2.6563.63331.8327 1.05253 1.3663 1.25764 1.6007.20535.2349.36665.4105.4839.5277l.43986.4221c.28144.2815.69474.6187 1.24007 1.0115.54549.393 1.14929.7799 1.81189 1.1614.6627.3808 1.4337.6916 2.3133.9319.8796.2406 1.7356.3372 2.5683.2906h2.023c.4103-.0354.7211-.1645.9324-.3871l.07-.0882c.047-.07.0911-.1787.1318-.3251.0411-.1465.0616-.308.0616-.4837-.012-.5042.0263-.9586.1141-1.3631.0876-.4044.1876-.7093.2993-.9147.1118-.2052.2378-.3783.3781-.5187.1406-.1406.2408-.2258.2996-.2552.0584-.0295.105-.0495.1402-.0615.2814-.0938.6127-.003.9942.2729.3812.2756.7387.6159 1.0731 1.0203.3343.4048.7359.8589 1.2049 1.3631.4693.5044.8796.8793 1.2313 1.1259l.3517.2111c.2349.1408.5398.2699.9151.3871q.56205.1758.9849.0879l4.503-.0702c.4454 0 .792-.0738 1.0378-.2201.2464-.1466.3927-.3081.4399-.4837.0471-.1759.0496-.3754.0089-.5984-.0417-.2225-.0828-.378-.1237-.466" />
  </symbol>
  <symbol id="icon-whatsapp" viewBox="0 0 35 35" stroke="none">
    <path
      d="m24.87 20.32-.01.1c-3.13-1.55-3.46-1.76-3.86-1.15-.28.42-1.1 1.37-1.34 1.65-.25.28-.5.3-.92.1s-1.8-.65-3.41-2.1a13 13 0 0 1-2.36-2.94c-.41-.72.46-.82 1.25-2.32.14-.3.07-.54-.04-.75-.1-.21-.95-2.3-1.3-3.13s-.7-.73-.96-.73c-.82-.07-1.42-.06-1.94.5-2.3 2.51-1.72 5.11.24 7.88 3.86 5.04 5.91 5.97 9.67 7.26 1.01.32 1.94.28 2.67.17.81-.13 2.5-1.02 2.86-2.02s.36-1.84.26-2.03-.39-.3-.81-.49" />
    <path
      d="M29.15 4.9C18.23-5.66.15 2 .15 16.9c0 2.97.77 5.87 2.26 8.44L0 34.09l9-2.35c11.23 6.07 25.09-1.98 25.1-14.84 0-4.51-1.77-8.76-4.97-11.95zm2.1 11.95c0 10.85-11.9 17.62-21.32 12.08l-.51-.3-5.33 1.39 1.43-5.18-.34-.54c-5.86-9.32.87-21.5 11.97-21.5 3.77 0 7.3 1.46 9.97 4.13a14 14 0 0 1 4.13 9.92" />
  </symbol>
</svg>
